<?xml version="1.0" encoding="utf-8" ?><svg xmlns="http://www.w3.org/2000/svg" xmlns:xlink="http://www.w3.org/1999/xlink" width="1024" height="1024" viewBox="250 250 524 524"><path d="M603.874 347.194C623.946 345.191 624.869 351.733 638.362 360.731L638.957 361.124C665.789 360.075 682.277 368.17 689.831 395.425C692.49 394.382 695.393 394.444 698.089 395.094C712.559 398.584 713.927 416.631 720.774 426.993C723.82 431.603 731.713 436.457 735.27 440.992C736.728 442.851 737.261 446.119 738.905 448.808C748.699 447.628 751.367 452.966 758.501 458.278C812.344 498.373 878.557 502.784 942.395 490.771C942.506 504.82 942.478 518.87 942.309 532.919C891.758 520.438 830.031 525.152 783.661 549.312C777.117 552.722 770.649 556.977 764.498 561.169C758.259 565.421 752.361 571.606 745.281 574.221C743.658 574.821 740.414 574.54 738.611 574.435C735.178 586.598 726.757 587.816 720.018 597.015C717.4 600.589 715.069 608.1 713.163 612.379C708.146 623.636 702.429 629.694 689.45 627.988C682.552 654.578 665.151 663.518 638.882 661.972C631.377 666.128 626.751 673.502 617.64 675.284C601.682 678.405 577.762 673.218 573.896 654.69C572.169 646.414 574.827 640.375 579.235 633.739C578.594 632.339 577.983 630.926 577.405 629.499C571.827 615.48 573.123 602.129 578.978 588.523C574.525 580.191 573.82 571.616 576.67 562.594C577.777 559.093 579.193 556.706 579.524 553.026L578.69 552.69C577.636 552.827 576.117 553.027 575.326 553.785C567.145 561.622 559.549 570.537 551.091 578.058C545.699 578.491 537.643 578.352 532.03 578.407C528.076 587.253 521.193 589.266 513.372 583.313C512.269 581.865 511.369 580.566 510.808 578.805C509.85 575.728 510.21 572.391 511.801 569.589C515.552 563.033 522.48 562.596 528.43 566.459C539.923 554.847 551.674 542.663 563.389 531.335L593.697 531.356C594.947 528.732 596.032 525.568 597.063 522.816C584.466 522.686 571.868 522.633 559.271 522.657C550.863 531.21 542.508 539.815 534.205 548.469C530.537 548.974 525.348 548.886 521.53 548.936C511.445 569.182 488.628 547.868 506.113 535.827C511.74 531.951 517.87 535.75 520.855 541.516L531.285 541.438C538.641 533.77 548.412 523.207 556.12 516.17C569.084 515.653 584.781 516.083 597.951 516.107L597.93 507.583L547.463 507.533C547.661 517.903 548 521.759 535.916 519.859C532.246 519.282 513.536 521.482 513.164 517.632C512.604 511.815 511.544 494.069 513.814 489.499C517.766 488.053 541.877 488.122 546.048 489.222C548.099 491.797 547.531 497.493 547.498 501.01L597.084 501.073C596.033 498.126 594.712 495.327 593.425 492.476L555.787 492.478C549.54 486.662 543.337 480.131 536.94 474.6C522.666 482.026 513.474 466.94 523.086 456.545C528.025 451.204 539.465 455.747 540.945 462.521C541.465 464.903 540.865 467.904 542.483 469.735C547.749 475.173 553.343 480.515 558.702 485.858C568.779 485.949 578.857 485.863 588.931 485.602C587.227 483.339 585.255 479.998 583.701 477.517C577.671 477.389 571.379 477.459 565.327 477.44C555.414 468.08 545.304 457.866 535.477 448.29C532.553 449.302 529.805 450.239 526.702 449.601C521.309 448.382 516.582 442.389 517.773 436.656C519.92 426.308 535.774 423.599 539.375 434.295C540.388 437.302 540.302 439.133 539.451 442.23C549.023 451.542 558.504 460.949 567.89 470.449L579.568 470.421C573.943 457.423 571.78 447.486 578.86 434.54C578.442 433.579 578.036 432.614 577.642 431.644C571.55 416.579 572.716 404.156 578.896 389.564C565.371 365.149 579.104 350.235 603.874 347.194Z"/><path fill="white" d="M593.02 389.605C603.816 388.196 607.519 393.274 614.721 400.006C612.862 396.661 611.116 393.254 609.487 389.792C621.732 389.915 634.91 395.234 642.049 405.519C641.579 406.804 640.716 408.386 640.969 409.458C648.525 410.444 648.794 412.867 654.291 417.933C651.849 413.765 650.407 412.207 647.114 408.826C659.138 410.501 672.049 415.662 678.621 426.351C670.358 426.061 665.355 426.126 657.006 427.119C666.106 428.934 690.701 424.862 686.007 441.362L685.818 442.007C686.945 442.741 689.502 442.527 691.013 442.531L698.127 448.31C696.75 445.957 695.257 444.252 693.546 442.148C706.654 449.397 714.794 451.25 728.091 460.919C724.105 460.918 720.12 461.014 716.138 461.204C726.013 464.271 732.484 463.077 739.589 472.714C749.041 485.535 755.833 501.641 753.593 518.028C751.891 530.474 743.417 549.758 732.495 557.222C729.18 559.488 720.885 560.246 719.107 561.627C722.241 562.198 725.191 562.025 728.374 561.974C718.465 569.45 705.671 575.211 694.356 580.471C697.234 576.095 698.755 573.372 700.545 568.486C698.056 571.963 695.705 575.633 692.942 578.871C690.91 581.252 688.526 579.939 685.709 580.744C691.239 597.103 668.771 594.79 658.843 595.392C665.601 596.922 671.488 596.704 678.391 596.789C672.577 608.002 658.88 611.753 647.357 614.105C649.246 612.113 651.037 609.943 652.822 607.851C650.299 609.27 648.158 611.024 645.854 612.779C644.169 613.289 642.748 613.075 640.793 613.737C641.245 615.777 641.299 615.908 641.286 617.968C637.512 625.439 614.4 637.337 610.813 631.419C611.077 629.801 614.155 625.114 615.274 623.093C609.631 627.072 607.217 632.089 599.663 633.377C589.497 635.229 582.832 626.845 581.346 617.226C580.114 610.311 580.878 594.002 587.89 590.608C588.589 590.27 602.858 589.591 605.093 589.301C602.712 593.235 602.227 594.616 601.028 598.877C602.625 596.648 605.16 593.009 606.992 591.02C614.029 583.382 625.612 582.205 634.464 577C643.286 571.899 649.918 563.663 659.03 559.005C663.982 556.473 668.016 556.022 673.45 555.714C684.286 545.232 688.596 546.291 702.606 541.971C698.319 541.916 695.417 542.236 691.118 542.7C692.534 541.436 693.918 540.137 695.267 538.802C706.114 528.074 712.886 514.903 705.906 499.795C702.393 492.191 696.918 487.087 691.035 481.378C695.737 481.748 699.412 482.044 704.149 481.977C689.117 477.031 686.618 480.363 673.443 468.521C652.58 468.676 646.581 452.84 631.153 445.273C612.358 436.054 611.958 440.724 599.896 421.88C601.433 426.905 602.526 429.399 604.664 434.145C598.784 432.963 592.62 432.625 586.638 432.416C578.195 420.247 576.825 396.399 593.02 389.605Z"/><path fill="white" d="M592.904 437.578C605.304 436.813 623.758 448.955 633.872 455.824C638.895 459.235 644.652 464.995 650.296 467.663C659.835 472.163 668.699 472.039 678.043 477.558C714.883 499.314 704.494 539.005 666.786 551.375C660.841 553.325 653.418 554.47 648.027 557.904C643.618 560.712 639.335 564.628 635.055 567.7C625.051 574.266 599.866 591.325 588.215 583.666C585.332 581.732 583.332 578.735 582.652 575.33C579.975 562.138 593.075 545.221 600.136 534.692C612.442 534.621 624.748 534.631 637.053 534.724C637.721 535.933 638.344 537.199 638.973 538.432C646.028 545.23 656.622 540.171 655.333 531.348C654.94 528.71 653.507 526.339 651.352 524.767C645.559 520.501 640.372 524.384 637.05 529.421C625.844 529.46 613.74 529.721 602.605 529.303C604.415 523.484 604.878 520.615 605.284 514.544L637.059 514.521C642.544 525.746 656.74 521.376 655.199 511.171C654.764 508.245 653.09 505.648 650.605 504.044C644.873 500.376 640.223 504.432 637.216 509.229C626.65 509.124 616.083 509.155 605.518 509.323C605.264 504.444 603.994 499.258 602.735 494.556C614.206 494.499 625.677 494.507 637.147 494.581C645.115 507.425 657.342 499.446 655.026 490.131C654.319 487.3 652.44 484.904 649.859 483.543C644.078 480.563 639.672 484.354 637.14 489.419L600.098 489.382C593.363 477.683 565.898 444.781 592.904 437.578Z"/><path fill="white" d="M740.916 455.825C747.135 456.417 756.945 466.605 762.78 470.348C814.828 503.738 875.008 510.01 935.143 499.413L935.145 524.122C915.995 519.933 892.086 518.368 872.485 519.4C839.966 519.933 799.248 530.79 771.493 547.836C766.671 550.77 761.984 553.919 757.444 557.273C753.291 560.393 744.706 568.902 739.716 567.119C738.708 565.599 738.91 564.147 739.403 562.481C741.771 554.483 751.349 543.231 755.377 534.855C758.206 528.972 760.211 522.632 760.87 516.122C763.676 488.421 737.738 466.511 738.706 458.764C738.891 457.284 739.889 456.731 740.916 455.825Z"/><path fill="white" d="M665.329 615.646C666.299 615.541 667.271 615.464 668.245 615.415C671.902 615.222 677.22 615.598 679.232 618.291C689.612 632.18 668.264 653.682 654.008 654.58C649.539 654.861 647.307 655.099 643.417 655.042C652.125 647.16 657.524 646.222 658.551 633.426C658.087 634.714 656.834 638.767 656.224 639.831C651.294 648.443 639.871 652.278 632.054 657.428C629.261 659.268 624.319 663.804 621.387 666.147C611.466 671.706 606.391 667.121 597.874 662.109C599.76 664.572 601.814 666.57 603.982 668.781C598.211 667.752 594.009 666.839 588.654 663.662C581.156 659.419 577.945 648.465 582.678 641.132C585.146 637.308 590.865 638.632 594.657 638.512C602.767 638.257 611.754 639.39 619.742 637.925C624.625 637.029 630.846 635.213 635.299 632.975C637.609 631.699 641.043 628.152 642.934 626.054C649.505 618.767 656.065 617.246 665.329 615.646Z"/><path fill="white" d="M597.684 361.902C601.442 359.491 604.959 356.102 609.447 354.968C613.465 353.952 615.264 353.697 618.877 355.664C624.173 358.547 628.2 362.817 633.172 366.001C640.11 370.445 647.808 373.899 653.92 379.594C655.51 381.076 657.446 387.096 658.629 389.716C656.684 375.914 653.643 377.358 643.486 367.992C660.959 367.607 671.16 372.597 679.728 387.96C682.407 393.841 684.884 402.66 677.353 406.242C670.406 409.547 653.978 405.874 648.194 401.186C639.986 394.534 635.332 387.078 623.691 385.691C617.222 384.487 614.602 384.715 607.723 384.179C600.432 383.611 591.734 384.936 584.957 383.812C582.823 382.903 581.507 379.703 581.157 377.89C578.251 362.826 589.897 357.114 602.314 354.599L603.466 354.716C603.134 355.681 598.811 360.48 597.684 361.902Z"/><path fill="white" d="M727.719 571.506C728.901 571.628 728.801 571.718 729.95 572.198C733.416 577.787 717.11 587.765 714.065 592.455C708.4 601.182 707.86 613.956 698.652 619.994C696.612 621.332 692.294 622.765 690.825 619.942C690.763 617.177 691.716 617.418 691.989 615.167L690.896 615.4C688.64 616.366 686.784 617.622 684.564 616.252C684.081 614.035 684.679 613.283 683.205 611.693C681.649 611.618 681.202 611.705 679.749 611.131C679.354 608.392 695.587 583.865 699.651 581.891C708.001 577.836 718.775 574.212 727.719 571.506Z"/><path fill="white" d="M692.29 401.986C708.619 401.445 707.323 423.442 716.076 432.928C720.101 437.291 729.569 443.903 730.922 449.34C730.458 450.857 730.889 450.249 729.506 451.168C725.611 451.705 720.367 449.033 716.541 447.481C711.82 445.608 701.788 443.556 698.25 440.54C695.199 437.94 679.032 414.544 680.071 411.869C681.544 411.595 682.328 411.511 683.789 411.383C684.956 409.008 683.014 407.464 686.303 406.441C688.935 406.964 691.062 408.524 693.403 409.935C692.085 408.065 690.84 406.64 690.25 404.457C690.72 402.652 690.398 403.293 692.29 401.986Z"/><path fill="white" d="M566.228 538.116C573.854 538.081 581.481 538.095 589.107 538.159L584.146 545.861C580.576 545.858 576.913 545.96 573.335 546.019C566.878 551.825 558.417 561.015 552.158 567.406L548.416 570.958C543.417 571.092 538.136 571.06 533.114 571.102C542.832 560.674 555.927 548.364 566.228 538.116Z"/><path fill="white" d="M519.615 495.681C526.54 495.594 533.466 495.593 540.391 495.679L540.377 512.619L519.581 512.572L519.615 495.681Z"/><path fill="white" d="M529.437 461.259C531.869 460.873 534.149 462.545 534.513 464.98C534.876 467.416 533.184 469.681 530.745 470.022C528.337 470.359 526.107 468.693 525.749 466.289C525.39 463.884 527.035 461.639 529.437 461.259Z"/><path fill="white" d="M521.003 570.823C523.37 570.568 525.513 572.235 525.849 574.592C526.185 576.949 524.592 579.148 522.248 579.564C520.659 579.846 519.042 579.239 518.032 577.98C517.022 576.722 516.778 575.012 517.397 573.521C518.016 572.031 519.398 570.996 521.003 570.823Z"/><path fill="white" d="M528.322 434.29C530.722 433.887 532.992 435.51 533.386 437.911C533.779 440.312 532.146 442.576 529.743 442.959C527.355 443.34 525.108 441.719 524.717 439.332C524.325 436.946 525.937 434.692 528.322 434.29Z"/><path fill="white" d="M509.4 541.789C510.879 541.26 512.528 541.566 513.719 542.59C514.909 543.614 515.458 545.199 515.156 546.74C514.854 548.282 513.747 549.542 512.258 550.041C509.987 550.801 507.529 549.591 506.745 547.329C505.962 545.067 507.146 542.596 509.4 541.789Z"/><path fill="white" d="M644.926 529.123C646.149 528.692 647.51 528.978 648.456 529.865C649.402 530.752 649.776 532.092 649.425 533.34C649.074 534.588 648.057 535.537 646.787 535.801C644.997 536.174 643.224 535.095 642.733 533.333C642.242 531.571 643.201 529.73 644.926 529.123Z"/><path fill="white" d="M645.185 508.752C646.961 508.293 648.782 509.319 649.31 511.076C649.838 512.833 648.883 514.693 647.148 515.289C645.964 515.695 644.653 515.421 643.73 514.575C642.808 513.729 642.422 512.446 642.726 511.231C643.029 510.017 643.973 509.065 645.185 508.752Z"/><path fill="white" d="M645.078 488.715C646.283 488.33 647.602 488.645 648.504 489.532C649.406 490.42 649.742 491.733 649.377 492.945C649.012 494.156 648.005 495.065 646.763 495.306C644.992 495.65 643.26 494.553 642.813 492.805C642.366 491.057 643.359 489.264 645.078 488.715Z"/><path d="M409.491 347.138C435.511 344.351 463.61 360.993 445.568 389.382C446.33 391.059 447.058 392.75 447.752 394.456C453.073 407.913 451.425 421.49 445.841 434.501C450.626 444.47 451.438 452.618 447.476 463.242C446.574 465.66 445.23 468.057 445.525 470.558L446.275 471.147C449.746 470.523 469.044 450.208 472.731 446.539L491.544 446.446C492.927 443.667 494.853 440.205 497.911 439.102C504.253 436.814 510.937 439.338 512.946 445.838C513.858 448.833 513.55 452.067 512.089 454.836C508.655 461.226 501.791 461.895 495.955 458.334C484.308 469.604 472.815 481.034 461.48 492.618C451.545 492.344 440.958 492.513 430.975 492.504C429.773 495.318 428.727 498.082 427.641 500.941L465.216 500.953C469.375 496.835 473.207 492.546 477.627 488.218C481.298 484.624 486.89 478.146 491.67 475.758C492.118 475.534 495.408 475.49 496.032 475.484C499.638 467.172 508.206 462.834 515.163 470.091C517.273 472.275 518.432 475.205 518.387 478.241C518.315 481.289 516.852 484.169 514.556 486.047C504.366 494.381 500.194 483.268 494.637 482.865C491.111 483.76 472.8 503.397 468.739 507.551L426.464 507.536L426.49 516.054C442.674 515.862 459.148 516.023 475.354 516.028C475.163 499.372 476.574 502.625 492.528 502.97C496.208 503.05 506.265 502.014 508.894 504.084C510.192 508.259 510.394 529.068 508.979 533.036C505.42 534.377 480.493 534.367 476.425 533.317C474.681 531.007 475.172 525.697 475.183 522.663C460.023 522.329 442.428 522.433 427.313 522.726C428.131 525.792 429.385 528.537 430.619 531.458L464.709 531.468L483.19 549.398C500.624 538.95 508.803 567.687 490.857 569.367C485.856 569.835 480.418 566.104 479.134 561.356C478.561 559.235 479.431 555.905 477.77 554.061C472.876 548.482 467.243 543.399 461.863 538.24C453.242 537.979 444.002 538.171 435.224 538.005L440.627 546.304C445.228 546.262 449.829 546.305 454.428 546.433C464.443 555.89 474.142 565.935 484.276 575.51C486.748 574.323 488.343 573.966 490.951 573.271C502.606 576.071 506.989 586.953 496.826 594.574C486.486 598.368 478.93 592.499 480.431 581.528C471.861 573.284 460.021 560.441 451.4 553.299L444.697 553.194C450.043 566.28 452.68 575.259 445.87 588.434C446.586 590.157 447.255 591.899 447.874 593.659C452.854 608.237 452.092 619.816 445.425 633.458C456.453 651.88 450.731 668.199 429.479 674.501C419.814 677.366 406.42 677.081 397.957 671.325C393.843 668.528 390.317 664.822 385.768 662.32C358.686 662.827 342.466 654.956 334.97 627.67C312.064 630.077 312.992 610.153 303.738 595.917C300.748 591.319 292.798 587.219 289.347 582.625C287.773 580.528 287.281 577.006 285.575 574.884C283.091 574.585 276.231 573.678 274.412 572.158C220.873 527.409 149.828 517.969 81.6452 532.826L81.7239 490.667C88.0513 491.954 94.4112 493.076 100.797 494.032C162.058 502.865 226.024 492.053 273.658 451.629C276.969 448.82 281.012 447.996 285.166 449.112C287.015 449.609 287.742 442.406 289.079 441.226C293.346 435.731 299.858 432.451 303.914 426.751C309.923 417.937 310.916 404.822 320.122 398.09C324.633 394.792 329.537 394.108 334.937 395.019C340.582 370.284 360.68 358.858 385.021 361.179C395.091 355.263 396.195 349.488 409.491 347.138Z"/><path fill="white" d="M409.684 400.456C413.642 395.947 417.332 391.711 423.328 389.91C433.019 387.001 440.806 393.668 442.875 402.94C445.156 413.162 443.564 423.419 438.114 432.369C432.142 432.637 426.185 433.174 420.261 433.977C422.154 429.663 422.734 428.104 423.759 423.553C412.56 441.954 409.359 436.745 392.862 445.486C376.162 454.335 373.46 466.949 351.408 468.401C338.64 479.915 335.97 476.624 321.614 481.813C325.944 481.67 329.418 481.439 333.726 480.989C310.055 503.467 310.049 520.163 333.825 542.385C329.154 541.882 325.503 541.629 320.807 541.479C335.469 546.476 339.35 544.115 351.385 555.507C370.443 555.276 376.794 569.629 390.837 577.111C409.603 587.11 412.413 580.947 424.478 601.436C423.287 596.221 422.419 594.108 420.143 589.349C426.333 590.364 432.068 590.368 438.305 590.903C446.08 602.464 447.865 632.061 428.631 633.814C421.568 634.458 415.305 628.399 410.354 623.949C411.798 626.852 413.93 630.015 415.697 632.788C414.346 632.763 412.996 632.716 411.647 632.646C402.699 632.154 392.091 628.033 385.764 621.427C383.248 618.801 383.54 617.354 383.953 613.947C383.244 612.421 383.295 613.433 380.746 613.083C378.466 612.77 374.187 609.318 372.184 607.886C374.483 610.952 375.576 611.98 378.377 614.628C366.838 612.819 351.921 607.51 346.267 596.511C353.827 596.664 360.065 597.103 367.467 595.261C359.36 595.033 343.249 596.376 338.569 588.364C337.206 586.029 338.75 583.041 339.593 580.635C338.771 579.557 335.892 580.744 334.997 580.354C332.695 579.352 328.271 575.726 326.09 574.169C327.77 576.812 329.218 578.438 331.249 580.814C320.178 575.893 305.848 569.065 296.567 561.641C300.12 561.763 303.408 562.064 306.876 561.293C305.9 560.449 296.166 559.936 291.832 556.836C281.567 549.492 274.276 533.548 271.429 521.848C267.548 505.901 273.583 490.084 281.889 476.72C290.016 463.644 295.096 464.25 308.758 461.292C304.479 460.896 300.945 460.971 296.671 461.024C304.632 454.419 320.063 447.535 329.845 442.623C329.025 445.275 326.774 448.5 325.443 451.323C327.157 449.363 329.565 446.777 331.13 444.792C334.612 441.101 334.748 443.569 338.298 442.183C339.216 440.376 338.116 439.237 338.135 437.353C338.248 426.405 358.759 427.742 365.954 427.695C359.825 425.663 352.695 426.092 346.237 426.162C346.518 425.647 346.812 425.141 347.119 424.642C353.274 414.718 367.538 410.957 378.232 408.397C375.647 411.078 373.267 413.375 371.165 416.46C374.368 414.331 378.049 410.049 381.058 409.657C385.928 409.022 381.507 405.697 385.598 401.636C394.157 393.137 403.774 390.447 415.303 389.935C413.066 393.749 411.547 396.467 409.684 400.456Z"/><path fill="white" d="M425.996 437.585C442.302 436.59 445.496 448.491 440.509 461.836C436.766 471.853 430.175 480.423 424.398 489.358C412.168 489.574 399.528 489.447 387.267 489.477C381.204 477.129 367.811 483.009 369.488 493.105C369.93 495.801 371.433 498.207 373.662 499.785C379.485 503.864 384.373 499.757 387.282 494.555L422.034 494.551C419.866 500.547 419.613 502.905 418.99 509.346L387.331 509.383C380.983 497.314 367.73 503.469 369.613 513.628C370.067 516.204 371.559 518.48 373.74 519.924C375.617 521.168 377.925 521.578 380.116 521.057C384.058 520.121 385.666 517.865 387.566 514.63L419.056 514.638C419.438 521.007 419.89 523.274 421.832 529.358C410.367 529.496 398.901 529.531 387.435 529.464C383.177 522.995 375.643 518.943 370.885 527.365C369.438 529.945 369.147 533.017 370.083 535.824C372.16 542.16 377.985 542.308 383.361 540.212C385.694 538.111 385.937 537.5 387.289 534.597L424.154 534.696C430.696 545.024 448.03 566.278 440.905 579.141C439.165 582.244 436.256 584.523 432.826 585.471C421.561 588.469 400.933 574.614 391.562 568.637C385.988 565.082 380.985 559.641 374.702 556.594C365.361 552.065 355.003 551.809 346.263 546.058C308.491 522.929 322.177 481.263 361.452 471.722C375.786 468.24 378.54 465.155 389.333 456.641C397.776 449.98 415.69 439.999 425.996 437.585Z"/><path fill="white" d="M281.043 455.984C283.125 456.125 283.958 456.3 285.392 457.716C286.592 462.527 275.009 477.602 271.77 483.162C258.25 504.458 261.767 526.862 276.154 546.585C278.918 550.373 287.794 562.437 285.023 566.913C282.118 568.026 277.761 565.665 275.546 563.857C240.934 535.597 200.322 522.52 155.625 519.516C129.596 518.514 114.336 519.459 88.9752 523.999L88.7951 499.172C148.682 511.488 218.553 502.377 268.27 465.041C272.199 462.091 276.719 458.112 281.043 455.984Z"/><path fill="white" d="M349.531 615.603C350.601 615.499 351.675 615.432 352.75 615.401C359.175 615.255 372.635 617.618 376.711 621.838C387.85 633.368 394.968 637.708 411.51 638.416C420.359 638.795 429.732 638.799 439.17 638.485C447.929 647.643 444.205 659.605 433.557 665.06C428.974 667.407 425.335 668.134 420.29 668.912C422.761 666.422 424.318 664.462 426.509 661.706C422.324 664.133 420.137 666.177 415.341 668.287C412.957 668.563 406.997 668.919 405.129 667.365C394.589 658.6 383.025 652.272 371.804 644.636C369.079 642.782 368.395 638.602 366.906 636.147C363.277 641.371 377.956 652.18 381.175 655.186C365.362 655.236 353.103 651.078 345.326 636.019C341.081 627.8 339.953 619.958 349.531 615.603Z"/><path fill="white" d="M407.582 354.549C415.6 353.731 418.987 356.472 425.674 360.55C423.348 357.685 422.126 356.554 419.387 354.056C424.055 354.69 427.412 355.075 431.776 357.126C443.27 362.526 448.979 374.416 438.964 384.562C427.382 384.118 400.059 383.26 391.157 388.977C375.046 399.325 379.043 404.865 356.05 407.493C355.561 407.497 355.072 407.496 354.583 407.489C333.382 407.155 344.029 385.112 353.518 377.006C362.385 369.432 369.336 367.652 380.678 368.205C375.202 374.087 366.097 377.954 366.858 387.205L367.315 387.39C368.66 383.679 369.203 380.548 372.438 378.034C378.278 373.508 384.868 370.137 391.057 366.124C396.699 362.465 401.295 357.053 407.582 354.549Z"/><path fill="white" d="M294.874 571.095C301.672 572.626 320.96 578.904 326.5 582.74C329.975 585.146 344.765 608.318 345.01 610.748C343.982 611.675 343.22 611.434 341.511 611.635C339.3 613.212 342.028 615.09 338.947 616.599C336.96 616.525 336.334 615.978 334.518 614.995C333.196 614.063 333.893 614.287 332.417 614.127C332.594 616.63 335.634 616.992 334.566 620.205C332.082 621.915 326.023 620.631 324.143 618.79C314.335 609.022 315.401 593.605 303.408 585.135C299.275 582.216 290.883 576.471 294.874 571.095Z"/><path fill="white" d="M328.114 401.978C330.652 401.694 333.588 401.32 334.413 404.143C333.989 406.403 332.676 407.677 331.237 409.538C333.888 407.981 336.175 406.518 339.203 405.998C341.064 407.057 339.326 409.356 341.053 411.544C342.524 411.685 343.615 411.601 344.753 412.484C344.32 416.461 330.292 436.706 326.175 440.37C324.294 442.045 314.126 445.476 311.275 446.487C307.737 447.855 297.556 452.438 294.388 450.891C291.819 445.423 306.375 436.073 309.62 431.617C317.018 421.461 315.839 407.881 328.114 401.978Z"/><path fill="white" d="M475.707 453.474L490.992 453.526C480.152 463.623 468.922 475.219 458.359 485.737L451.724 485.823L435.78 485.572C437.509 482.931 439.205 480.267 440.867 477.583L451.369 477.533C458.636 471.055 468.52 460.545 475.707 453.474Z"/><path fill="white" d="M482.434 509.98L502.687 509.952C502.824 515.487 502.702 521.328 502.677 526.886C496.357 527.158 488.858 526.948 482.447 526.909L482.434 509.98Z"/><path fill="white" d="M490.048 580.377C492.366 579.712 494.792 581.014 495.518 583.314C496.243 585.614 495.004 588.073 492.723 588.858C491.195 589.384 489.501 589.04 488.3 587.958C487.098 586.876 486.578 585.228 486.942 583.653C487.305 582.078 488.494 580.823 490.048 580.377Z"/><path fill="white" d="M505.69 473.741C507.219 473.212 508.914 473.56 510.11 474.65C511.306 475.739 511.811 477.394 511.426 478.965C511.042 480.536 509.83 481.772 508.266 482.186C505.969 482.794 503.603 481.477 502.91 479.204C502.217 476.932 503.445 474.518 505.69 473.741Z"/><path fill="white" d="M488.208 554.261C490.405 553.303 492.963 554.297 493.938 556.487C494.912 558.676 493.938 561.242 491.756 562.234C489.55 563.236 486.95 562.249 485.965 560.035C484.979 557.822 485.986 555.229 488.208 554.261Z"/><path fill="white" d="M501.206 445.282C503.342 444.566 505.671 445.604 506.566 447.672C507.46 449.74 506.623 452.149 504.638 453.215C503.195 453.991 501.439 453.887 500.097 452.948C498.756 452.009 498.057 450.395 498.292 448.774C498.526 447.153 499.653 445.802 501.206 445.282Z"/><path fill="white" d="M378.012 528.712C379.854 528.521 381.532 529.781 381.864 531.603C382.195 533.424 381.069 535.195 379.278 535.666C377.99 536.004 376.621 535.593 375.734 534.6C374.847 533.607 374.59 532.201 375.071 530.959C375.551 529.717 376.687 528.849 378.012 528.712Z"/><path fill="white" d="M376.73 488.775C378.395 487.911 380.445 488.507 381.386 490.129C382.327 491.752 381.827 493.828 380.251 494.844C379.163 495.544 377.778 495.591 376.646 494.964C375.515 494.336 374.819 493.138 374.837 491.844C374.854 490.55 375.582 489.371 376.73 488.775Z"/><path fill="white" d="M377.426 508.762C379.24 508.223 381.147 509.258 381.683 511.073C382.219 512.887 381.18 514.792 379.364 515.325C377.553 515.856 375.654 514.82 375.12 513.01C374.585 511.2 375.617 509.299 377.426 508.762Z"/></svg>