<?xml version="1.0" encoding="utf-8" ?><svg xmlns="http://www.w3.org/2000/svg" xmlns:xlink="http://www.w3.org/1999/xlink" width="1024" height="1024" viewBox="0 0 1024 1024"><path fill="white" d="M0 0L1024 0L1024 1024L0 1024L0 0Z"/><path d="M409.663 400.267C414.126 394.821 418.74 389.557 426.266 388.788C437.008 387.69 445.159 397.913 445.552 407.909C445.886 412.898 444.132 428.13 440.362 431.905C437.466 434.804 425.076 432.749 420.929 434.286C420.925 434.288 418.827 434.626 418.771 434.635L417.42 433.93C407.722 442.633 402.723 440.782 392.846 446.471C379.251 454.302 369.599 469.993 351.958 469.4C344.81 476.408 341.221 477.786 331.56 480.157L333.518 481.169L334.384 481.383C333.631 482.713 329.617 486.098 328.084 487.754C319.658 496.851 314.549 507.3 318.058 519.931C321.462 532.189 329.222 535.686 335.299 543.232L335.135 544.969C343.33 547.853 345.942 549.043 351.708 555.791C368.728 553.505 379.939 571.717 393.853 578.602C402.284 582.774 409.266 583.092 417.071 589.071L419.173 589.046C425.375 589.829 432.02 590.343 438.012 590.239C441.437 590.179 444.462 600.146 444.547 602.765C446.746 612.89 445.241 625.951 436.201 632.372C427.286 638.704 419.014 632.841 412.46 626.935L412.876 627.65L413.33 628.459C414.291 630.143 415.6 632.012 416.691 633.642C403.635 633.705 395.481 630.91 385.315 621.788C384.012 620.619 383.327 619.526 382.605 617.957C382.729 614.505 384.765 615.233 384.081 613.693L378.749 614.085C377.372 612.694 375.604 610.659 374.003 609.74L374.906 610.476L374.471 610.496C375.898 612.191 377.366 613.851 378.875 615.473C364.914 610.994 353.799 610.131 346.324 597.286C346.329 596.331 346.154 596.632 346.433 596.246L348.426 595.182C345.472 594.398 339.495 591.623 337.894 588.8C336.28 585.955 338.491 583.944 339.461 581.074C338.05 580.516 336.104 581.159 334.363 581.458C331.907 579.431 330.036 577.153 327.538 575.34C328.508 577.526 331.208 580.274 332.873 582.175C324.015 577.488 301.297 568.809 295.942 561.705L296.557 560.269C282.599 554.506 272.945 532.207 270.38 518.387C267.25 501.524 277.123 481.154 288.067 468.815C291.006 465.502 293.888 463.76 298.22 463.057L296.246 461.393C298.959 456.555 325.888 444.101 332.224 441.878C329.335 444.929 328.129 446.62 325.837 450.103C327.942 448.407 331.352 444.236 333.765 441.876C335.835 442.055 337.704 442.201 339.78 442.266C333.016 435.191 342.045 429.699 348.382 427.866L348.119 426.95L346.656 426.749C346.226 425.926 346.041 426.03 346.416 425.218C350.992 415.307 362.999 412.767 372.436 409.889C374.883 409.142 377.086 408.403 379.416 407.545C376.191 410.976 373.184 414.084 370.294 417.825C372.725 415.499 376.231 411.795 378.878 409.74C379.258 409.446 382.526 409.12 383.271 409.047L383.618 408.6C383.154 407.109 382.294 405.559 383.224 404.197C390.197 393.99 404.797 388.875 416.302 389.541C414.123 393.473 411.806 396.574 409.663 400.267Z"/><path fill="#B5B4B5" d="M348.426 595.182C353.627 595.384 360.859 595.169 365.636 595.668L365.555 596.004L366.449 595.946C361.356 596.63 351.501 596.921 346.433 596.246L348.426 595.182Z"/><path fill="#B5B4B5" d="M348.119 426.95C351.816 426.324 362.49 426.121 365.698 427.394L364.924 427.139L364.711 427.571C359.446 427.773 353.287 427.458 348.382 427.866L348.119 426.95Z"/><path fill="#E6E5E7" d="M296.557 560.269C300.008 560.593 302.946 560.767 306.307 561.654L306.393 561.939C301.749 562.454 299.096 561.462 295.942 561.705L296.557 560.269Z"/><path fill="#E6E5E7" d="M417.42 433.93C420.227 430.843 421.086 427.115 423.323 424.602C422.733 428.294 421.16 431.759 418.771 434.635L417.42 433.93Z"/><path fill="#E6E5E7" d="M322.117 541.928C326.075 542.063 331.058 542.908 335.299 543.232L335.135 544.969C330.657 544.026 326.533 543.178 322.117 541.928Z"/><path fill="#E6E5E7" d="M417.071 589.071L419.173 589.046C421.896 593.515 422.927 596.709 424.609 601.649C422.287 597.394 420.101 592.781 417.071 589.071Z"/><path fill="#E6E5E7" d="M296.246 461.393C300.858 461.555 304.947 460.831 309.253 461.07C305.208 461.966 302.315 462.532 298.22 463.057L296.246 461.393Z"/><path fill="#E6E5E7" d="M333.518 481.169C330.086 481.598 326.076 482.26 322.688 481.989C326.392 480.927 327.756 480.583 331.56 480.157L333.518 481.169Z"/><path d="M606.112 434.447C600.802 433.586 586.115 434.072 584.528 431.881C575.581 419.526 576.387 389.233 596.784 388.351C605.131 387.99 609.317 394.276 613.686 398.556C614.162 396.602 607.066 391.509 610.201 388.754C618.63 387.787 638.861 396.854 642.37 405.502C642.318 406.955 641.809 407.438 640.989 408.657L640.671 409.123C642.101 410.003 643.921 408.499 646.954 409.894L647.634 409.258L648.317 408.623C658.648 410.761 673.593 416.041 678.778 425.878C678.484 426.581 678.727 426.377 678.178 426.617L677.558 427.931C682.852 429.455 690.82 435.057 686.107 441.257L685.618 441.912C685.508 442.055 685.397 442.197 685.287 442.34C687.131 442.268 688.972 442.144 690.809 441.969C691.434 442.449 697.015 447.051 696.977 447.038C695.471 444.889 694.4 443.417 692.669 441.387C698.129 444.435 726.9 456.665 727.937 461.247L727.72 463.084C737.68 466.77 745.237 479.062 749.462 488.314C755.818 501.96 756.305 517.614 750.811 531.628C747.261 540.892 739.219 554.883 730.136 559.71L729.519 561.664C721.44 569.385 704.117 576.582 693.708 581.221L693.314 581.237L692.451 580.376C689.816 581.816 687.995 581.194 684.948 580.674C691.141 587.711 684.055 591.861 678.029 595.071L678.693 596.462C674.615 609.153 657.339 611.579 645.965 615.498C647.672 613.666 649.368 611.823 651.052 609.97L651.194 609.377L651.983 608.772C650.703 609.449 647.39 612.85 646.156 614.036L640.901 614.021C641.088 614.353 642.215 616.395 642.222 616.545C642.591 625.717 616.245 636.241 609.749 633.269C609.031 629.968 613.455 628.053 613.946 625.126C610.893 626.259 609.391 632.277 602.611 633.951C584.305 637.702 577.53 621.054 579.775 605.585C582.983 583.476 588.32 591.997 606.465 588.806L607.51 589.749C616.519 581.683 624.21 583.082 633.39 577.661C648.04 569.011 654.645 555.764 673.422 555.424C679.322 549.215 682.853 547.165 691.066 544.846L690.477 542.84C699.848 534.148 709.098 525.639 708.533 511.478C707.994 497.97 699.217 489.902 690.104 481.173L690.213 479.417C682.921 477.466 678.783 474.884 673.542 469.601C654.622 468.934 647.685 456.457 633.044 447.171C625.62 442.463 615.893 441.349 609.036 435.177C605.074 431.611 603.286 427.669 600.758 423.139C602.381 428.116 603.265 430.087 606.112 434.447Z"/><path fill="#B5B4B5" d="M677.558 427.931C672.414 427.519 660.998 428.148 657.955 427.616L658.122 427.251C664.347 426.081 671.788 426.474 678.178 426.617L677.558 427.931Z"/><path fill="#E6E5E7" d="M678.693 596.462C672.692 596.684 666.136 596.823 660.163 596.117C662.269 595.33 675.004 595.157 678.029 595.071L678.693 596.462Z"/><path fill="#E6E5E7" d="M729.519 561.664C726.533 561.612 721.286 562.816 718.461 561.776C722.501 560.72 725.996 560.551 730.136 559.71L729.519 561.664Z"/><path fill="#E6E5E7" d="M690.213 479.417C695.386 480.342 699.561 480.989 704.588 482.639C699.756 482.188 694.928 481.699 690.104 481.173L690.213 479.417Z"/><path fill="#E6E5E7" d="M690.477 542.84C694.43 542.991 697.634 542.162 701.736 542.473C698.187 543.3 694.63 544.091 691.066 544.846L690.477 542.84Z"/><path fill="#E6E5E7" d="M727.72 463.084C724.164 462.79 722.019 462.693 718.571 461.76L718.451 461.423C721.968 460.954 724.625 461.62 727.937 461.247L727.72 463.084Z"/><path fill="#B5B4B5" d="M692.451 580.376L700.619 570.055C698.573 575.152 694.256 579.783 693.708 581.221L693.314 581.237L692.451 580.376Z"/><path fill="#B5B4B5" d="M647.634 409.258C649.495 411.305 652.292 414.198 653.763 416.38L653.49 417.202L654.112 416.937L654.278 417.738L653.986 417.61L654.32 417.409L653.742 417.44L654.132 417.03L653.732 416.392L652.786 416.597C650.812 414.389 648.868 412.155 646.954 409.894L647.634 409.258Z"/><path fill="#B5B4B5" d="M606.465 588.806L607.51 589.749C604.947 592.789 604.225 595.292 601.836 598.141C601.879 595.196 604.825 591.261 606.465 588.806Z"/><path d="M593.379 437.116C595.312 436.973 599.485 437.044 601.31 437.734C611.972 441.769 624.617 448.682 633.902 455.232C638.213 458.273 646.778 466.179 650.949 467.895C661.105 471.993 670.568 471.983 680.092 478.288C698.232 490.295 709.559 510.386 696.278 530.599C688.984 541.623 677.858 549.547 665.055 552.837C657.995 554.724 654.494 554.981 647.856 558.564C643.492 560.474 639.042 566.9 635.337 569.016C625.041 574.894 597.879 593.656 586.721 583.985C573.322 572.369 588.701 548.556 596.799 537.579C586.983 537.383 576.595 537.5 566.74 537.47C555.29 547.877 541.009 562.739 529.927 573.903C535.859 573.519 542.966 573.758 549.143 573.549C557.428 565.931 566.558 556.161 574.851 548.103C578.336 547.958 581.451 547.317 584.13 549.508L583.76 550.891C581.378 552.619 579.487 552.385 576.658 552.42C567.846 560.697 559.682 569.791 550.712 578.018L530.461 578.196C521.512 596.192 505.573 574.356 518.888 568.274C521.19 567.222 525.452 568.906 527.634 570.137C539.759 557.989 552.349 545.042 564.716 533.234C589.214 533.412 613.25 533.982 637.786 533.938C640.132 538.946 642.672 541.871 648.586 540.438C658.779 537.967 654.105 521.521 644.302 524.198C641.152 525.058 639.441 527.304 638.056 530.124C625.983 529.945 613.653 530.032 601.56 529.996L601.936 522.029L575.25 521.967L559.016 521.931C550.837 529.503 541.859 539.418 533.607 547.487L519.925 547.514C516.474 554.605 509.165 556.548 504.881 551.407C498.592 543.859 510.496 529.387 519.66 543.134C523.656 543.26 527.778 543.22 531.786 543.232C540.063 534.791 548.387 526.397 556.76 518.051C571.492 517.225 586.492 518.145 601.255 517.584C602.801 517.525 601.842 515.625 603.066 514.069C611.11 513.415 628.743 513.994 637.553 514.067C640.978 519.227 646.84 523.158 652.299 517.996C653.749 516.636 654.585 514.746 654.618 512.759C654.711 507.707 650.98 503.468 645.736 503.903C641.387 504.264 640.226 506.461 637.694 509.626C634.158 510.058 605.402 510.434 603.616 509.414C603.38 507.592 603.694 508.084 602.794 506.703C597.032 506.111 583.432 506.476 577.257 506.47C561.389 506.397 545.521 506.423 529.654 506.55C529.227 507.199 528.786 507.838 528.329 508.467C525.236 512.667 519.814 514.179 515.599 510.648C513.775 509.113 512.634 506.918 512.425 504.544C512.231 502.381 512.98 500.239 514.479 498.668C516.198 496.869 518.996 495.519 521.535 495.701C525.401 495.978 526.028 498.847 528.502 501.033C530.859 503.116 595.329 502.026 603.921 502.005L600.714 494.357C612.843 494 625.909 494.115 638.068 494.138C641.307 501.737 649.281 503.06 653.148 496.101C658.778 485.968 643.711 477.402 638.015 490.226C610.747 490.086 583.183 490.815 555.852 491.065C548.785 484.889 542.426 478.15 535.506 471.748C520.675 480.325 516.719 456.622 530.576 456.874C537.062 456.991 538.786 462.656 538.303 468.031C544.069 474.104 551.643 481.331 557.726 487.062C569.294 487.083 584.804 487.481 595.996 486.534C586.569 474.098 565.852 442.625 593.379 437.116Z"/><path fill="white" d="M520.047 572.745C522.098 571.683 524.621 572.498 525.664 574.559C526.706 576.62 525.867 579.135 523.796 580.158C521.753 581.167 519.279 580.342 518.25 578.308C517.222 576.275 518.024 573.793 520.047 572.745Z"/><path fill="white" d="M519.785 500.271C521.237 499.874 522.789 500.297 523.839 501.375C524.888 502.454 525.269 504.017 524.834 505.457C524.398 506.898 523.215 507.988 521.744 508.304C519.554 508.774 517.388 507.416 516.857 505.24C516.326 503.064 517.624 500.861 519.785 500.271Z"/><path fill="white" d="M509.671 542.166C511.047 541.507 512.674 541.663 513.9 542.57C515.126 543.477 515.751 544.988 515.523 546.497C515.295 548.005 514.253 549.264 512.813 549.769C510.749 550.494 508.478 549.478 507.642 547.455C506.806 545.433 507.697 543.11 509.671 542.166Z"/><path fill="white" d="M528.196 461.785C530.144 460.673 532.624 461.346 533.743 463.29C534.862 465.234 534.198 467.716 532.259 468.842C530.309 469.974 527.811 469.307 526.686 467.353C525.561 465.399 526.238 462.903 528.196 461.785Z"/><path d="M425.488 437.097C429.681 436.765 436.274 437.041 439.327 439.876C453.299 452.85 435.581 477.214 428.483 486.952C438.519 487.063 448.555 487.091 458.591 487.034L493.328 452.332C487.544 451.881 481.191 451.994 475.349 451.971C468.38 458.052 457.285 469.886 450.425 476.778L440.358 476.501C441.128 474.825 441.293 474.441 442.372 472.972C444.141 471.93 446.424 472.357 448.567 472.469C456.407 464.215 465.011 455.751 473.126 447.779C479.259 447.487 486.283 447.626 492.457 447.632C498.122 433.932 511.329 441.768 508.749 452.845C507.404 458.619 500.505 458.037 495.776 455.995C483.947 467.528 472.103 479.675 460.42 491.404C452.182 490.627 443.135 491.265 434.856 490.932C418.806 490.286 403.082 490.353 387.007 490.379C378.767 474.636 363.312 491.355 374.146 499.282C378.742 502.645 384.333 499.1 386.514 494.386C398.07 493.985 411.78 494.048 423.328 494.272C421.842 497.486 421.391 498.757 420.427 502.17C436.08 502.06 451.734 502.053 467.387 502.147C474.309 495.78 483.968 485.08 491.235 478.42C491.339 478.325 494.358 477.847 494.902 477.765C498.27 474.73 495.906 470.045 502.546 469.298C511.88 468.247 515.874 479.321 508.551 484.903C502.932 489.186 499.846 482.82 494.894 482.262C491.197 483.137 474.049 502.272 469.488 506.555C464.354 506.527 422.538 505.949 421.139 507.107C421.314 508.702 421.436 508.15 420.989 509.577C415.533 510.313 393.32 510.01 387.144 509.828C383.247 504.234 376.063 500.163 371.731 507.71C370.422 510.01 370.146 512.757 370.972 515.272C373.423 522.737 383.043 521.91 386.741 514.381C390.799 514.128 395.243 514.161 399.335 514.11C403.01 514.104 420.564 513.534 422.365 514.597L422.68 516.951C422.945 517.145 423.209 517.338 423.473 517.532C439.155 517.889 477.564 517.644 491.002 517.605C493.171 512.493 496.062 510.508 501.625 511.698C512.153 513.95 507.029 530.712 497.281 528.203C494.241 527.421 492.377 524.711 491.086 522.013C468.65 521.632 445.294 521.925 422.815 522.002L422.536 530.127C411.408 529.759 398.533 530.051 387.283 530.073C385.31 527.047 380.878 522.253 377.011 523.922C360.633 530.99 378.83 551.393 387.021 534.042L464.127 533.314C471.512 540.126 478.534 547.802 486.082 554.399C491.862 551.6 499.15 551.123 500.118 559.208C500.431 561.857 499.65 564.519 497.954 566.579C494.465 570.877 489.47 570.227 485.663 566.768C483.037 564.745 484.707 560.279 483.011 558.253C476.909 550.964 469.129 544.082 462.269 537.537L427.079 537.557C435.307 548.339 447.981 566.081 441.285 579.933C432.333 595.848 412.745 580.628 402.204 576.136C391.259 571.471 384.808 562.518 375.372 557.534C366.878 553.048 357.014 553.328 347.906 547.964C335.748 540.803 328.118 532.618 323.775 518.914C321.067 510.622 325.129 500.753 329.237 493.541C335.666 482.255 348.388 474.852 360.698 471.669C365.275 470.485 372.391 469.053 376.356 466.704C380.499 464.249 385.894 458.827 389.814 456.027C397.883 450.263 416.179 439.522 425.488 437.097Z"/><path fill="white" d="M490.463 556.771C491.897 556.252 493.5 556.544 494.659 557.535C495.818 558.526 496.354 560.064 496.064 561.562C495.773 563.059 494.7 564.284 493.254 564.77C491.054 565.509 488.67 564.341 487.905 562.15C487.141 559.959 488.281 557.561 490.463 556.771Z"/><path fill="white" d="M497.469 515.823C499.56 514.79 502.093 515.644 503.131 517.733C504.169 519.822 503.322 522.357 501.236 523.4C499.142 524.448 496.595 523.596 495.553 521.5C494.511 519.403 495.37 516.859 497.469 515.823Z"/><path fill="white" d="M499.856 445.205C501.343 444.789 502.937 445.224 504.008 446.336C505.079 447.448 505.453 449.058 504.982 450.529C504.511 451.999 503.27 453.092 501.752 453.374C499.544 453.785 497.404 452.385 496.896 450.197C496.388 448.009 497.692 445.809 499.856 445.205Z"/><path fill="white" d="M502.479 473.769C504.531 472.999 506.825 473.976 507.693 475.988C508.561 478 507.697 480.339 505.73 481.304C504.369 481.971 502.752 481.836 501.522 480.95C500.291 480.065 499.648 478.575 499.849 477.073C500.049 475.571 501.06 474.301 502.479 473.769Z"/><path d="M280.751 455.512C282.98 455.354 283.963 455.478 285.747 456.657C288.586 461.26 282.507 468.187 279.874 472.248C273.044 482.785 266.023 493.138 264.303 505.882C261.735 524.628 272.219 539.866 282.151 554.734C284.595 558.392 292.479 570.895 279.605 567.785C275.098 565.577 270.141 560.626 266.212 557.815C232.494 533.692 194.079 524.06 153.427 521.053C129.619 520.396 110.252 521.545 86.8785 526.754L86.9976 498.052C94.6662 499.451 102.359 501.014 110.111 501.912C162.841 508.02 220.632 498.351 264.563 467.255C269.939 463.45 275.073 458.766 280.751 455.512Z"/><path d="M740.32 455.413C747.376 455.301 756.299 464.673 762.156 468.721C801.722 496.067 852.814 506.334 900.334 503.189C912.861 502.36 925.082 500.281 937.412 498.029C937.47 507.572 937.465 517.116 937.398 526.66C917.536 521.614 894.767 520.511 874.375 521.039C838.185 521.743 797.829 532.822 767.105 552.027C761.258 555.681 748.641 566.86 743.506 568.167C742.063 568.535 740.321 568.521 739.074 567.594C737.916 566.733 737.402 565.678 737.768 564.239C738.736 560.432 741.507 556.722 743.607 553.444C750.445 542.769 757.837 532.329 760.224 519.606C765.778 489.993 737.408 468.27 738.072 458.767C738.182 457.201 739.306 456.45 740.32 455.413Z"/><path d="M382.62 655.928C363.27 656.004 351.764 651.937 342.642 633.047C341.126 629.906 340.447 624.93 342.003 621.658C347.503 611.403 358.175 615.257 366.307 616.801C380.488 619.493 380.375 626.46 390.552 633.605C393.305 635.538 402.023 636.19 406.649 638.225C413.327 637.246 419.953 638.468 426.759 638.477C429.679 638.481 438.48 637.346 440.289 637.933C442.882 640.014 445.55 645.72 445.605 648.927C445.877 664.856 429.326 669.555 417.331 670.46C420.374 668.002 423.114 666.102 425.52 663.003L425.274 662.489C420.969 666.552 420.695 667.22 414.976 668.923C403.594 672.313 399.284 662.768 390.946 657.418C386.083 654.298 380.283 651.029 375.033 647.709L374.443 648.556C377.948 650.915 379.783 652.891 382.62 655.928Z"/><path fill="#B5B4B5" d="M374.443 648.556C370.874 646.624 364.938 640.233 366.956 636.041L367.411 636.337C369.162 643.234 369.778 644.082 375.033 647.709L374.443 648.556Z"/><path d="M618.5 638.625C624.478 635.199 629.308 635.914 635.468 632.75C639.88 630.789 643.069 624.438 646.634 622.027C653.947 617.368 666.213 613.358 674.864 615.193C682.462 616.805 685.138 624.483 682.602 631.327C676.182 648.653 660.875 658.478 642.408 655.282C644.771 653.341 647.313 651.16 649.709 649.303L649.812 647.708C644.152 651.647 638.239 654.694 632.787 658.382C625.24 663.488 621.47 671.087 611.129 669.415C606.415 668.653 602.391 663.97 599.949 663.827C600.647 665.84 604.236 667.169 605.874 669.688C604.299 670.742 602.997 670.218 601.194 669.938C588.215 667.931 576.852 659.631 579.403 645.037C579.891 642.241 583.455 637.638 586.113 638.042C596.406 639.607 608.554 637.207 618.5 638.625Z"/><path fill="#E6E5E7" d="M649.812 647.708C655.818 643.075 656.027 641.927 658.667 634.655C657.389 642.727 657.05 643.946 650.232 648.924L649.709 649.303L649.812 647.708Z"/><path d="M655.858 379.246C652.414 375.188 646.414 373.188 644.502 368.928L644.728 367.951C648.656 365.63 656.88 368.134 661.162 369.254C669.371 371.4 676.505 379.651 680.517 386.792C682.871 390.982 684.961 396.293 683.493 401.106C682.707 403.682 680.816 405.692 678.4 406.832C671.577 410.053 660.15 407.384 653.45 404.752C636.454 398.075 644.151 388.074 618.032 385.337C610.816 384.581 602.689 384.448 595.405 384.476C592.255 384.488 588.846 386.037 585.765 385.385C583.351 384.875 581.664 382.717 580.771 380.552C579 376.257 579.124 370.658 580.928 366.395C583.178 361.079 588.518 357.485 593.769 355.558C598.616 353.778 603.231 353.416 608.344 353.303C602.87 356.633 601.844 356.966 598.276 362.203C604.576 355.946 612.285 350.738 621.117 355.67C625.879 358.33 629.607 363.218 634.089 366.313C640.008 370.11 645.072 372.039 650.987 376.406C652.45 377.469 653.826 378.648 655.101 379.931L655.858 379.246Z"/><path fill="#B5B4B5" d="M655.858 379.246C657.511 382.271 658.832 384.689 658.439 388.122C657.061 386.622 656.73 382.709 655.101 379.931L655.858 379.246Z"/><path d="M417.227 353.453C425.608 353.444 431.83 354.256 438.893 359.807C445.451 364.962 447.843 376.34 442.219 383.094C438.541 387.511 432.903 384.004 428.228 384.337C414.996 385.28 400.841 384.189 388.811 390.871C387.163 391.786 382.564 396.684 381.106 398.244C374.408 405.303 364.774 407.87 355.343 408.177C347.739 408.424 340.287 405.384 341.154 396.498C341.907 388.779 349.526 378.985 355.429 374.191C362.845 368.168 372.831 366.633 382.131 367.737C380.731 369.453 378.89 371.105 377.276 372.653L377.558 374.043C381.784 371.126 386.315 368.841 390.852 366.049C394.598 363.744 404.25 353.517 408.654 353.762C416.718 354.211 418.544 354.872 424.35 359.806C423.473 357.489 419.342 354.906 417.227 353.453Z"/><path fill="#E6E5E7" d="M377.276 372.653L377.558 374.043C370.113 379.32 369.728 379.324 367.221 387.794C366.922 386.734 367.152 386.573 367.273 385.452C368.003 378.699 372.108 376.525 377.276 372.653Z"/><path d="M294.134 570.855C301.126 571.375 316.037 577.748 323.156 580.024C330.135 582.256 336.502 595.952 340.425 601.591C341.721 603.455 346.452 608.978 346.367 611.184C344.913 612.204 343.792 611.684 341.498 612.052C342.437 614.565 342.728 613.764 342.362 615.794C340.001 617.93 337.261 616.941 334.802 615.681C333.967 614.85 333.123 614.119 332.246 613.336C332.18 614.642 336.161 617.158 335.894 620.018C333.553 622.292 329.05 623.16 326.131 621.455C315.936 615.499 316 600.893 308.684 592.353C303.794 586.645 296.29 582.667 293.24 575.732C292.507 573.946 293.336 572.433 294.134 570.855Z"/><path d="M328.043 401.021C331.113 400.999 335.187 400.715 335.76 404.27C335.098 406.65 333.294 408.187 331.568 410.068C333.843 408.269 339.426 403.849 341.832 407.148C341.886 410.123 341.642 408.475 340.128 411.42C342.195 410.696 345.103 410.064 346.165 412.447C345.039 416.256 340.78 422.243 338.418 425.679C334.891 430.81 331.001 436.96 326.666 441.358C324.904 443.145 317.566 445.318 314.855 446.196C309.64 447.646 297.453 453.883 293.497 450.835C291.562 444.979 306.275 434.964 309.74 430.074C316.147 421.034 317.039 405.535 328.043 401.021Z"/><path d="M693.836 401.056C708.109 400.366 708.544 423.977 716.695 432.124C720.19 435.617 734.743 446.485 731.021 451.268C726.241 453.436 718.333 448.408 712.156 446.764L711.343 446.552C704.929 444.756 697.858 443.088 694.47 437.264C692.397 433.699 678.875 414.484 678.825 411.878L679.68 411.106C681.582 410.744 684.358 411.568 684.925 411.217C683.072 409.265 682.62 409.342 683.159 406.716L684.25 406.064C688.247 406.172 691.033 408.422 694.354 410.582C692.345 408.578 688.449 405.846 689.219 403.094C690.532 401.79 692.019 401.588 693.836 401.056Z"/><path d="M726.774 571.079C728.415 571.164 728.729 571.317 730.283 571.757C730.99 572.457 731.809 573.072 731.483 574.254C729.035 583.136 717.875 587.601 713.563 595.403C708.93 603.83 707.579 614.47 699.798 620.839C696.326 623.681 691.136 623.142 688.581 619.468C689.614 617.481 691.56 616.172 692.158 614.643L691.708 615.034C689.467 616.824 686.269 618.202 683.456 616.964C682.463 615.448 682.652 616.249 682.805 614.494C683.78 613.448 684.181 613.316 684.5 612.058C682.225 612.469 680.875 612.882 678.935 611.748C678.511 609.364 684.444 602.317 685.984 599.417C689.583 592.641 695.174 582.925 702.63 579.849C710.253 576.704 718.855 573.84 726.774 571.079Z"/><path d="M526.578 429.584C535.985 428.787 538.006 432.629 537.397 441.252C547.588 451.341 557.702 461.507 567.739 471.749C570.507 471.645 579.424 470.944 581.323 472.187C582.306 473.956 582.613 473.865 582.63 475.617C581.317 476.434 578.51 476.064 576.814 476.005L566.342 476.114C560.131 470.489 541.771 450.92 533.875 444.859C532.918 444.124 525.345 447.73 522.46 442.098C519.335 435.998 521.695 432.473 526.578 429.584Z"/><path fill="white" d="M528.174 433.732C530.232 433.058 532.451 434.154 533.166 436.198C533.882 438.242 532.83 440.483 530.801 441.239C529.452 441.742 527.936 441.476 526.838 440.544C525.74 439.612 525.232 438.16 525.509 436.747C525.786 435.333 526.806 434.18 528.174 433.732Z"/><path d="M440.029 548.264C443.931 548.355 447.936 548.346 451.848 548.385C460.258 557.137 471.443 567.395 480.295 576.003C489.538 571.806 497.388 578.292 492.214 587.662C484.885 595.302 475.747 590.106 477.529 579.42C468.336 570.485 459.14 561.184 449.73 552.525C444.081 552.822 442.294 554.004 440.029 548.264Z"/><path fill="white" d="M484.308 578.81C485.756 578.407 487.308 578.824 488.359 579.897C489.41 580.971 489.794 582.532 489.36 583.97C488.927 585.409 487.745 586.498 486.275 586.812C484.097 587.277 481.943 585.928 481.411 583.765C480.88 581.602 482.163 579.408 484.308 578.81Z"/><path d="M644.596 508.196C646.024 507.583 647.672 507.793 648.9 508.744C650.129 509.696 650.744 511.239 650.508 512.775C650.272 514.31 649.221 515.597 647.764 516.135C645.589 516.939 643.17 515.862 642.311 513.709C641.452 511.556 642.466 509.11 644.596 508.196Z"/><path d="M645.508 528.219C647.764 527.84 649.918 529.31 650.387 531.55C650.856 533.789 649.475 536 647.256 536.559C645.739 536.942 644.134 536.463 643.075 535.311C642.016 534.16 641.672 532.521 642.18 531.041C642.687 529.561 643.965 528.478 645.508 528.219Z"/><path d="M377.659 528.219C379.838 527.693 382.05 528.951 382.713 531.092C383.376 533.233 382.261 535.521 380.166 536.318C378.688 536.88 377.019 536.575 375.836 535.525C374.653 534.475 374.152 532.854 374.535 531.32C374.918 529.785 376.122 528.59 377.659 528.219Z"/><path d="M644.576 488.244C645.985 487.642 647.609 487.848 648.823 488.782C650.038 489.717 650.652 491.235 650.43 492.751C650.208 494.267 649.184 495.545 647.752 496.093C645.598 496.916 643.181 495.864 642.315 493.726C641.45 491.588 642.455 489.151 644.576 488.244Z"/><path d="M376.703 508.262C378.767 507.257 381.256 508.091 382.299 510.136C383.341 512.182 382.553 514.686 380.526 515.766C379.182 516.482 377.556 516.416 376.274 515.595C374.992 514.773 374.253 513.323 374.342 511.803C374.431 510.282 375.333 508.928 376.703 508.262Z"/><path d="M376.977 488.233C379.106 487.347 381.551 488.347 382.449 490.471C383.348 492.595 382.362 495.046 380.243 495.957C378.107 496.875 375.631 495.879 374.725 493.738C373.819 491.596 374.829 489.126 376.977 488.233Z"/></svg>